<?xml version="1.0" encoding="UTF-8"?>
<svg id="Layer_1" xmlns="http://www.w3.org/2000/svg" viewBox="0 0 1048.67 1022.47">
    <defs>
        <style>.b{fill:#666;}</style>
    </defs>
    <path class="b"
        d="M0,441.22c0,242.43,188.58,441.22,418.55,441.22,91.99,0,179.38-33.94,248.37-87.27l206.97,198.79c41.39,38.79,105.79,38.79,147.18-4.85,18.4-19.39,27.6-48.49,27.6-72.73,0-29.09-9.2-58.18-32.2-82.43l-220.77-203.64c27.6-58.18,41.39-121.21,41.39-189.09C837.09,198.79,648.52,0,418.55,0,183.98,4.85,0,198.79,0,441.22Zm717.51,0c0,174.55-137.98,320.01-303.56,320.01S110.39,615.77,110.39,441.22,248.37,121.21,413.95,121.21s303.56,145.46,303.56,320.01Z" />
</svg>