<?xml version="1.0" encoding="UTF-8"?>
<svg id="Layer_1" data-name="Layer 1" xmlns="http://www.w3.org/2000/svg" viewBox="0 0 1080 1080">
  <defs>
    <style>
      .cls-1 {
        fill: #676767;
      }
    </style>
  </defs>
  <path class="cls-1" d="m397.13,337.13c-13.41,0-24.29,10.88-24.29,24.29v497.18c0,13.41,10.88,24.29,24.29,24.29s24.29-10.88,24.29-24.29v-497.18c0-13.41-10.88-24.29-24.29-24.29Z"/>
  <path class="cls-1" d="m540,334.27c-13.41,0-24.29,10.88-24.29,24.29v497.18c0,13.41,10.88,24.29,24.29,24.29s24.29-10.88,24.29-24.29v-497.18c0-13.41-10.88-24.29-24.29-24.29Z"/>
  <path class="cls-1" d="m682.87,337.13c-13.41,0-24.29,10.88-24.29,24.29v497.18c0,13.41,10.88,24.29,24.29,24.29s24.29-10.88,24.29-24.29v-497.18c0-13.41-10.88-24.29-24.29-24.29Z"/>
  <path class="cls-1" d="m955.75,175.68c0-40.97-33.33-74.29-74.29-74.29h-158.05c-13.44-18.79-74.74-95.72-177.69-95.72-70.69,0-118.33,27.12-145.84,49.86-22.16,18.31-35.11,36.59-40.86,45.87h-160.47c-40.97,0-74.3,33.32-74.3,74.29,0,37.08,27.31,67.9,62.86,73.41v631.73c0,73.61,59.89,133.5,133.5,133.5h438.78c73.61,0,133.5-59.89,133.5-133.5V249.1c35.56-5.52,62.86-36.33,62.86-73.41h0ZM432.48,91.62c30.82-24.79,68.92-37.37,113.24-37.37,36.43,0,70.76,12.74,102.04,37.85,3.88,3.12,7.46,6.23,10.77,9.29h-237.1c3.3-3.2,6.97-6.49,11.05-9.77h0Zm326.91,874.13h-438.78c-46.83,0-84.92-38.1-84.92-84.92V249.98h608.62v630.85c0,46.83-38.1,84.92-84.92,84.92h0Zm122.06-764.35H198.55c-14.18,0-25.72-11.54-25.72-25.72s11.54-25.72,25.72-25.72h682.91c14.18,0,25.72,11.54,25.72,25.72s-11.54,25.72-25.72,25.72Z"/>
</svg>